<?xml version="1.0" standalone="no"?>
<!DOCTYPE svg PUBLIC "-//W3C//DTD SVG 20010904//EN"
 "http://www.w3.org/TR/2001/REC-SVG-20010904/DTD/svg10.dtd">
<svg version="1.0" xmlns="http://www.w3.org/2000/svg"
 width="100.000000pt" height="100.000000pt" viewBox="0 0 100.000000 100.000000"
 preserveAspectRatio="xMidYMid meet">
<metadata>
Created by potrace 1.11, written by Peter Selinger 2001-2013
</metadata>
<g transform="translate(0.000000,100.000000) scale(0.100000,-0.100000)"
fill="#000000" stroke="none">
<path d="M0 500 l0 -500 500 0 500 0 0 500 0 500 -500 0 -500 0 0 -500z m576
429 c25 -10 61 -19 80 -19 37 0 39 -2 24 -30 -5 -10 -16 -46 -24 -80 l-15 -62
27 7 c15 3 34 8 42 10 11 4 15 -3 15 -27 l0 -32 74 -11 c51 -8 78 -17 87 -30
15 -20 18 -122 8 -212 l-7 -53 -383 0 c-254 0 -385 3 -389 10 -4 6 -9 61 -12
123 -4 86 -2 116 9 130 16 21 74 36 136 37 42 0 43 1 38 28 -23 115 -18 127
53 127 48 0 50 1 60 37 6 20 24 46 38 58 31 24 64 22 139 -11z m-426 -709 c0
-82 -3 -100 -15 -100 -12 0 -15 18 -15 100 0 82 3 100 15 100 12 0 15 -18 15
-100z m163 72 c16 -16 21 -34 21 -72 0 -67 -23 -91 -93 -98 l-51 -5 0 103 0
103 51 -5 c33 -4 58 -12 72 -26z m87 -38 c0 -76 12 -104 43 -104 38 0 47 19
47 97 0 58 3 73 15 73 12 0 15 -15 15 -79 0 -74 -2 -81 -26 -100 -33 -26 -65
-27 -95 -2 -21 17 -24 30 -27 100 -4 69 -2 81 12 81 13 0 16 -12 16 -66z m190
19 l0 -47 43 48 c24 27 49 47 56 45 10 -4 5 -15 -18 -41 -17 -20 -31 -41 -31
-47 0 -6 16 -33 36 -61 32 -44 34 -50 16 -50 -12 0 -30 16 -46 41 -32 48 -50
46 -54 -4 -2 -24 -8 -37 -18 -37 -11 0 -14 20 -14 100 0 82 3 100 15 100 11 0
15 -12 15 -47z m170 -19 c0 -76 12 -104 43 -104 38 0 47 19 47 97 0 58 3 73
15 73 12 0 15 -15 15 -79 0 -74 -2 -81 -26 -100 -33 -26 -65 -27 -95 -2 -21
17 -24 30 -27 100 -4 69 -2 81 12 81 13 0 16 -12 16 -66z"/>
<path d="M451 911 c-26 -26 -37 -85 -33 -173 l2 -38 93 0 93 0 12 68 c6 37 15
77 18 90 5 16 2 22 -9 22 -8 0 -35 8 -59 18 -74 32 -96 34 -117 13z"/>
<path d="M317 813 c-10 -9 -9 -68 2 -96 8 -20 15 -23 40 -19 l31 4 -6 52 c-4
28 -12 54 -18 58 -14 10 -41 10 -49 1z"/>
<path d="M663 713 c-31 -6 -29 -23 2 -23 16 0 25 6 25 15 0 8 -1 14 -2 14 -2
-1 -13 -4 -25 -6z"/>
<path d="M282 660 c-72 -5 -128 -13 -137 -20 -16 -13 -20 -90 -9 -174 l7 -46
357 0 357 0 7 46 c11 83 7 161 -9 174 -8 7 -76 15 -172 20 -176 10 -224 10
-401 0z"/>
<path d="M220 220 l0 -70 29 0 c37 0 56 23 56 70 0 47 -19 70 -56 70 l-29 0 0
-70z"/>
</g>
</svg>
